<svg width="20" height="20" viewBox="0 0 20 20" fill="none" xmlns="http://www.w3.org/2000/svg">
<g clip-path="url(#clip0_124_2074)">
<path d="M7.24023 9.97632C7.24023 10.1863 7.32324 10.3669 7.48438 10.5281L11.2344 14.1853C11.3613 14.3123 11.5176 14.3806 11.7031 14.3806C12.084 14.3806 12.3867 14.0779 12.3867 13.7019C12.3867 13.5164 12.3135 13.3406 12.1768 13.2039L8.85645 9.9812L12.1768 6.75366C12.3086 6.61694 12.3867 6.44604 12.3867 6.25562C12.3867 5.87964 12.084 5.5769 11.7031 5.5769C11.5176 5.5769 11.3613 5.64526 11.2295 5.77222L7.48438 9.42944C7.31836 9.60034 7.24023 9.77124 7.24023 9.97632Z" fill="#69788C"/>
</g>
<defs>
<clipPath id="clip0_124_2074">
<rect width="20" height="20" fill="white"/>
</clipPath>
</defs>
</svg>
