<svg width="20" height="20" viewBox="0 0 20 20" fill="none" xmlns="http://www.w3.org/2000/svg">
<path d="M12.3867 9.9812C12.3867 9.77124 12.3037 9.59058 12.1426 9.42944L8.39258 5.77222C8.26563 5.64526 8.10938 5.5769 7.92383 5.5769C7.54297 5.5769 7.24023 5.87964 7.24023 6.25562C7.24023 6.44116 7.31348 6.61694 7.4502 6.75366L10.7705 9.97632L7.4502 13.2039C7.31836 13.3406 7.24023 13.5115 7.24023 13.7019C7.24023 14.0779 7.54297 14.3806 7.92383 14.3806C8.10938 14.3806 8.26563 14.3123 8.39746 14.1853L12.1426 10.5281C12.3086 10.3572 12.3867 10.1863 12.3867 9.9812Z" fill="#69788C"/>
</svg>
