<svg width="16" height="16" viewBox="0 0 16 16" fill="none" xmlns="http://www.w3.org/2000/svg">
<path opacity="0.4" d="M6.63076 0.335517C7.16152 -0.111839 8.01832 -0.111839 8.53392 0.335517L9.73193 1.35913C9.9594 1.54869 10.3916 1.70792 10.6949 1.70792H11.9839C12.7876 1.70792 13.4473 2.36758 13.4473 3.1713V4.46029C13.4473 4.76359 13.6065 5.1882 13.796 5.41567L14.8197 6.61369C15.267 7.14445 15.267 8.00126 14.8197 8.51685L13.796 9.71486C13.6065 9.94233 13.4473 10.3669 13.4473 10.6702V11.9592C13.4473 12.7629 12.7876 13.4226 11.9839 13.4226H10.6949C10.3916 13.4226 9.96698 13.5818 9.73951 13.7714L8.5415 14.795C8.01074 15.2424 7.15394 15.2424 6.63834 14.795L5.44031 13.7714C5.21284 13.5818 4.78065 13.4226 4.48494 13.4226H3.15803C2.35431 13.4226 1.69465 12.7629 1.69465 11.9592V10.6626C1.69465 10.3669 1.543 9.93474 1.35344 9.71486L0.32983 8.50927C-0.109943 7.98609 -0.109943 7.13687 0.32983 6.61369L1.35344 5.40808C1.543 5.18061 1.69465 4.756 1.69465 4.46029V3.17888C1.69465 2.37516 2.35431 1.7155 3.15803 1.7155H4.46977C4.77306 1.7155 5.19767 1.55627 5.42514 1.36671L6.63076 0.335517Z" fill="#BFC4DD"/>
<path d="M7.57782 11.2695C7.16079 11.2695 6.81959 10.9282 6.81959 10.5112C6.81959 10.0942 7.15321 9.75299 7.57782 9.75299C7.99485 9.75299 8.33605 10.0942 8.33605 10.5112C8.33605 10.9282 8.00243 11.2695 7.57782 11.2695Z" fill="#081225"/>
<path d="M7.57788 8.88066C7.26701 8.88066 7.00921 8.62286 7.00921 8.31198V4.64213C7.00921 4.33125 7.26701 4.07346 7.57788 4.07346C7.88876 4.07346 8.14656 4.33125 8.14656 4.64213V8.3044C8.14656 8.62286 7.89634 8.88066 7.57788 8.88066Z" fill="#081225"/>
</svg>
