<svg width="8" height="10" viewBox="0 0 8 10" fill="none" xmlns="http://www.w3.org/2000/svg">
<path d="M0.177566 6.16511C-0.0591885 6.38257 -0.0591885 6.73517 0.177566 6.95262L3.1434 9.67418C3.61699 10.1087 4.38437 10.1086 4.85772 9.67384L7.8224 6.95061C8.0592 6.73316 8.0592 6.38056 7.8224 6.1631C7.58567 5.94563 7.2018 5.94563 6.96506 6.1631L4.42759 8.49387C4.19086 8.71138 3.80699 8.71132 3.57025 8.49387L1.03491 6.16511C0.798165 5.94764 0.414314 5.94764 0.177566 6.16511Z" fill="#BFC4DD"/>
<path d="M7.82243 3.83489C8.05919 3.61743 8.05919 3.26483 7.82243 3.04738L4.8566 0.325821C4.38301 -0.108747 3.61563 -0.10858 3.14228 0.326155L0.177597 3.04939C-0.0591993 3.26684 -0.0591993 3.61944 0.177597 3.8369C0.414333 4.05437 0.798203 4.05437 1.03494 3.8369L3.57241 1.50613C3.80914 1.28862 4.19301 1.28867 4.42975 1.50613L6.96509 3.83489C7.20183 4.05236 7.58569 4.05236 7.82243 3.83489Z" fill="#BFC4DD"/>
</svg>
