<svg width="33" height="27" viewBox="0 0 33 27" fill="none" xmlns="http://www.w3.org/2000/svg">
<path d="M2.26858 11.6234C11.1269 7.81314 17.0339 5.30116 19.9894 4.08749C28.4282 0.622233 30.1817 0.0202814 31.3246 0.000192701C31.5759 -0.00396705 32.138 0.0575363 32.502 0.349192C32.8095 0.595461 32.894 0.928134 32.9345 1.16162C32.975 1.39511 33.0254 1.92701 32.9853 2.34262C32.528 7.08629 30.5493 18.5979 29.5427 23.9109C29.1167 26.1591 28.278 26.9129 27.466 26.9866C25.7014 27.1469 24.3614 25.8353 22.6523 24.7292C19.9779 22.9984 18.467 21.921 15.871 20.232C12.8709 18.2802 14.8157 17.2074 16.5255 15.4542C16.9729 14.9954 24.7479 8.01352 24.8984 7.38016C24.9172 7.30095 24.9346 7.00568 24.757 6.84977C24.5793 6.69386 24.3171 6.74717 24.1278 6.78958C23.8596 6.84968 19.5872 9.63764 11.3105 15.1535C10.0978 15.9756 8.99937 16.3762 8.0152 16.3552C6.93024 16.332 4.84321 15.7495 3.29171 15.2516C1.38874 14.6409 -0.123705 14.318 0.00799456 13.2809C0.076592 12.7407 0.83012 12.1882 2.26858 11.6234Z" fill="white"/>
</svg>
